# AST/ASF file generated using VICON BodyLanguage
# -----------------------------------------------
:version 1.10
:name VICON
:units
  mass 1.0
  length 0.45
  angle deg
:documentation
   .ast/.asf automatically generated from VICON data using
   VICON BodyBuilder and BodyLanguage model FoxedUp or BRILLIANT.MOD
:root
   order TX TY TZ RX RY RZ
   axis XYZ
   position 0 0 0  
   orientation 0 0 0 
:bonedata
  begin
     id 1 
     name lhipjoint
     direction 0.722297 -0.617336 0.311742 
     length 2.6635 
     axis 0 0 0  XYZ
  end
  begin
     id 2 
     name lfemur
     direction 0.34202 -0.939693 0  
     length 7.39349  
     axis 0 0 20  XYZ
    dof rx ry rz
    limits (-160.0 20.0)
           (-70.0 70.0)
           (-60.0 70.0)
  end
  begin
     id 3 
     name ltibia
     direction 0.34202 -0.939693 0   
     length 7.36294   
     axis 0 0 20   XYZ
    dof rx
    limits (-10.0 170.0)
  end
  begin
     id 4 
     name lfoot
     direction 0.104879 -0.288152 0.951824   
     length 2.16981   
     axis -90 7.62852e-016 20   XYZ
    dof rx rz
    limits (-45.0 90.0)
           (-70.0 20.0)
  end
  begin
     id 5 
     name ltoes
     direction 1.53586e-011 -4.21895e-011 1   
     length 1.08218   
     axis -90 7.62852e-016 20   XYZ
    dof rx
    limits (-90.0 20.0)
  end
  begin
     id 6 
     name rhipjoint
     direction -0.75102 -0.589393 0.297631   
     length 2.78977  
     axis 0 0 0  XYZ 
  end
  begin
     id 7 
     name rfemur
     direction -0.34202 -0.939693 0   
     length 7.46076   
     axis 0 0 -20   XYZ
    dof rx ry rz
    limits (-160.0 20.0)
           (-70.0 70.0)
           (-70.0 60.0)
  end
  begin
     id 8 
     name rtibia
     direction -0.34202 -0.939693 0   
     length 7.31726   
     axis 0 0 -20   XYZ
    dof rx
    limits (-10.0 170.0)
 end
 begin
     id 9 
     name rfoot
     direction -0.107991 -0.296704 0.948844   
     length 2.09388  
     axis -90 -7.62852e-016 -20   XYZ
    dof rx rz
    limits (-45.0 90.0)
           (-20.0 70.0)
  end
  begin
     id 10 
     name rtoes
     direction -1.53559e-011 -4.21911e-011 1   
     length 1.04433   
     axis -90 -7.62852e-016 -20   XYZ
    dof rx
    limits (-90.0 20.0)
  end
  begin
     id 11 
     name lowerback
     direction 0.0165164 0.98272 0.184358   
     length 1.71896   
     axis 0 0 0   XYZ
    dof rx ry rz
    limits (-20.0 45.0)
           (-30.0 30.0)
           (-30.0 30.0)
  end
  begin
     id 12 
     name upperback
     direction -0.00887249 0.992297 0.123566   
     length 1.71504   
     axis 0 0 0   XYZ
    dof rx ry rz
    limits (-20.0 45.0)
           (-30.0 30.0)
           (-30.0 30.0)
  end
  begin
     id 13 
     name thorax
     direction -0.0157026 0.998908 0.0440032   
     length 1.77022   
     axis 0 0 0   XYZ
    dof rx ry rz
    limits (-20.0 45.0)
           (-30.0 30.0)
           (-30.0 30.0)
  end
  begin
     id 14 
     name lowerneck
     direction -0.0238856 0.998137 0.0561411   
     length 1.89341   
     axis 0 0 0   XYZ
    dof rx ry rz
    limits (-20.0 45.0)
           (-30.0 30.0)
           (-30.0 30.0)
  end
  begin
     id 15 
     name upperneck
     direction 0.0276574 0.952253 -0.304056   
     length 1.86999   
     axis 0 0 0   XYZ
    dof rx ry rz
    limits (-20.0 45.0)
           (-30.0 30.0)
           (-30.0 30.0)
  end
  begin
     id 16
     name head
     direction 0.00800083 0.994258 -0.106712  
     length 1.91492  
     axis 0 0 0   XYZ
    dof rx ry rz
    limits (-20.0 45.0)
           (-30.0 30.0)
           (-30.0 30.0)
  end
  begin
     id 17 
     name lclavicle
     direction 0.97203 0.225407 0.06595  
     length 3.34889  
     axis 0 0 0   XYZ
    dof ry rz
    limits (-20.0 10.0)
           (0.0 20.0)
  end
  begin
     id 18 
     name lhumerus
     direction 1 -4.48973e-011 2.20267e-027   
     length 4.85645   
     axis 180 -30 -90   XYZ
    dof rx ry rz
    limits (-60.0 90.0)
           (-90.0 90.0)
           (-90.0 90.0)
  end
  begin
     id 19
     name lradius
     direction 1 -4.4897e-011 4.60472e-027   
     length 2.79874   
     axis 180 -30 -90   XYZ
    dof rx
    limits (-10.0 170.0)
  end
  begin
     id 20
     name lwrist
     direction 1 -4.48952e-011 1.14928e-026   
     length 1.39937   
     axis -6.29373e-015 90 90   XYZ
    dof ry
    limits (-180.0 0.0)
 end
  begin
     id 21 
     name lhand
     direction 1 -4.48967e-011 2.29886e-026   
     length 0.573398   
     axis -1.46689e-014 90 90   XYZ
    dof rx rz
    limits (-90.0 90.0)
           (-45.0 45.0)
  end
  begin
     id 22 
     name lfingers
     direction 1 -4.48955e-011 4.59726e-026   
     length 0.462289   
     axis -2.93383e-014 90 90   XYZ
    dof rx
    limits (0.0 90.0)
  end
  begin
     id 23
     name lthumb
     direction 0.707107 -6.34866e-011 0.707107   
     length 0.663757   
     axis -90 45 5.69224e-014   XYZ
    dof rx rz
    limits (-45.0 45.0)
           (-45.0 45.0)
  end
  begin
     id 24 
     name rclavicle
     direction -0.981571 0.157346 0.108443   
     length 3.35257  
     axis 0 0 0   XYZ 
    dof ry rz
    limits (-10.0 20.0)
           (-20.0 0.0)
  end
  begin
     id 25 
     name rhumerus
     direction -1 -4.48967e-011 8.58308e-029  
     length 4.67018   
     axis 180 30 90   XYZ
    dof rx ry rz
    limits (-90.0 60.0)
           (-90.0 90.0)
           (-90.0 90.0)
  end
  begin
     id 26 
     name rradius
     direction -1 -4.48958e-011 4.52548e-027   
     length 2.65534   
     axis 180 30 90   XYZ
    dof rx
    limits (-10.0 170.0)
  end
  begin
     id 27 
     name rwrist
     direction -1 -4.48977e-011 1.14952e-026   
     length 1.32767   
     axis -6.29373e-015 -90 -90   XYZ
    dof ry
    limits (-180.0 0.0)
  end
  begin
     id 28
     name rhand
     direction -1 -4.48924e-011 2.29804e-026   
     length 0.594069   
     axis -1.46689e-014 -90 -90   XYZ
    dof rx rz
    limits (-90.0 90.0)
           (-45.0 45.0)
  end
  begin
     id 29
     name rfingers
     direction -1 -4.48998e-011 4.59888e-026   
     length 0.478954   
     axis -2.93383e-014 -90 -90   XYZ
    dof rx
    limits (0.0 90.0)
  end
  begin
     id 30
     name rthumb
     direction -0.707107 -6.34933e-011 0.707107   
     length 0.687685   
     axis -90 -45 -5.69224e-014   XYZ
    dof rx rz
    limits (-45.0 45.0)
           (-45.0 45.0)
  end
:hierarchy
  begin
    root lhipjoint rhipjoint lowerback
    lhipjoint lfemur
    lfemur ltibia
    ltibia lfoot
    lfoot ltoes
    rhipjoint rfemur
    rfemur rtibia
    rtibia rfoot
    rfoot rtoes
    lowerback upperback
    upperback thorax
    thorax lowerneck lclavicle rclavicle
    lowerneck upperneck
    upperneck head
    lclavicle lhumerus
    lhumerus lradius
    lradius lwrist
    lwrist lhand lthumb
    lhand lfingers
    rclavicle rhumerus
    rhumerus rradius
    rradius rwrist
    rwrist rhand rthumb
    rhand rfingers
  end

#!OML:ASF E:\pregnant2\Project 1\Capture day 1\Session 1\pregnant2.ASF
:FULLY-SPECIFIED
:DEGREES
112
root 5.78681 10.5451 0.490788 40.7051 2.16429 -1.39177
lowerback 6.57997 -1.8049 2.71822
upperback -4.86857 -1.80339 4.31744
thorax -8.80567 -0.898275 3.31759
lowerneck -12.9965 1.13898 -0.987278
upperneck 34.1494 2.09073 -0.691782
head 13.7332 0.663497 0.211344
rclavicle 3.75703e-014 1.19271e-014
rhumerus -66.2596 41.1442 -114.152
rradius 26.896
rwrist 48.2627
rhand -32.8513 -10.5585
rfingers 7.12502
rthumb -6.07069 -40.4515
lclavicle 3.75703e-014 1.19271e-014
lhumerus -58.0935 -30.0752 111.616
lradius 27.7279
lwrist -43.9539
lhand -20.9909 20.03
lfingers 7.12502
lthumb 5.38309 49.9416
rfemur -125.323 -14.7525 27.6664
rtibia 106.537
rfoot -14.5006 -3.02427
rtoes -9.43887
lfemur -127.067 6.79253 -25.1216
ltibia 105.397
lfoot -18.9053 7.02731
ltoes -5.8018
113
root 5.79077 10.5689 0.550442 41.0633 2.03939 -1.2374
lowerback 6.59253 -1.7999 2.83954
upperback -4.9366 -1.77683 4.35488
thorax -8.89188 -0.891034 3.29005
lowerneck -13.1133 1.20803 -1.0108
upperneck 34.0294 2.28303 -0.936067
head 13.7104 0.712405 0.148257
rclavicle -2.54444e-014 1.63003e-014
rhumerus -65.7377 40.8028 -113.505
rradius 26.4762
rwrist 48.963
rhand -32.5757 -10.9244
rfingers 7.12502
rthumb -5.80462 -40.8249
lclavicle -2.54444e-014 1.63003e-014
lhumerus -58.5705 -30.7158 111.574
lradius 28.9509
lwrist -42.5599
lhand -22.3121 21.0658
lfingers 7.12502
lthumb 4.1074 51.0059
rfemur -125.357 -14.7511 27.4489
rtibia 106.533
rfoot -14.7541 -3.09999
rtoes -9.56598
lfemur -127.009 6.71837 -25.2938
ltibia 105.394
lfoot -19.2471 7.14178
ltoes -5.34197
114
root 5.79442 10.5959 0.606743 41.4088 1.92981 -1.06947
lowerback 6.59398 -1.80499 2.8976
upperback -4.95743 -1.76859 4.45247
thorax -8.91558 -0.887066 3.36215
lowerneck -13.2402 1.30709 -1.06028
upperneck 33.8349 2.53985 -1.22507
head 13.6586 0.781034 0.0820915
rclavicle 2.22639e-014 -6.75868e-015
rhumerus -65.633 40.8964 -113.299
rradius 26.2847
rwrist 48.3812
rhand -32.4957 -11.1299
rfingers 7.12502
rthumb -5.72731 -41.0325
lclavicle 2.22639e-014 -6.75868e-015
lhumerus -58.4487 -30.6882 110.797
lradius 30.0653
lwrist -41.6729
lhand -23.6423 21.5122
lfingers 7.12502
lthumb 2.82284 51.4732
rfemur -125.4 -14.7849 27.2246
rtibia 106.499
rfoot -14.8687 -3.10089
rtoes -9.41516
lfemur -126.984 6.63147 -25.4955
ltibia 105.346
lfoot -19.405 7.25455
ltoes -5.44954
115
root 5.79836 10.6222 0.662622 41.7762 1.82183 -0.938159
lowerback 6.59073 -1.78822 3.02643
upperback -4.99709 -1.72392 4.53179
thorax -8.96139 -0.870224 3.37065
lowerneck -13.3563 1.36807 -1.10298
upperneck 33.6284 2.74989 -1.54702
head 13.601 0.826813 -0.0049889
rclavicle -2.5842e-014 3.89618e-014
rhumerus -65.3913 40.8623 -113.036
rradius 25.9821
rwrist 47.7378
rhand -31.947 -10.8382
rfingers 7.12502
rthumb -5.19753 -40.7545
lclavicle -2.5842e-014 3.89618e-014
lhumerus -57.9721 -29.8289 109.317
lradius 31.0284
lwrist -41.3685
lhand -24.478 21.0465
lfingers 7.12502
lthumb 2.0157 51.0167
rfemur -125.419 -14.7693 27.0057
rtibia 106.464
rfoot -15.1275 -3.231
rtoes -9.6747
lfemur -126.954 6.55756 -25.6463
ltibia 105.31
lfoot -19.7055 7.36648
ltoes -5.12668
116
root 5.80278 10.651 0.717458 42.1643 1.69026 -0.807659
lowerback 6.53958 -1.76344 3.11467
upperback -5.0226 -1.67579 4.61991
thorax -8.96187 -0.849175 3.40786
lowerneck -13.5036 1.45747 -1.10887
upperneck 33.3973 2.99153 -1.87419
head 13.5418 0.8905 -0.094936
rclavicle 1.19271e-015 -2.14687e-014
rhumerus -64.872 40.6456 -112.402
rradius 25.6411
rwrist 47.3117
rhand -31.6396 -10.805
rfingers 7.12502
rthumb -4.90071 -40.7283
lclavicle 1.19271e-015 -2.14687e-014
lhumerus -57.82 -29.6254 108.133
lradius 32.4848
lwrist -40.1522
lhand -26.1711 22.6006
lfingers 7.12502
lthumb 0.380457 52.58
rfemur -125.451 -14.7314 26.7669
rtibia 106.4
rfoot -15.3456 -3.35209
rtoes -9.94964
lfemur -126.955 6.48194 -25.7836
ltibia 105.242
lfoot -19.9275 7.47102
ltoes -4.89307
117
root 5.80743 10.6802 0.772874 42.5103 1.54171 -0.668868
lowerback 6.52384 -1.75515 3.15398
upperback -5.03229 -1.65054 4.74892
thorax -8.96271 -0.834726 3.52061
lowerneck -13.6231 1.56456 -1.1716
upperneck 33.1716 3.29185 -2.2578
head 13.4817 0.96541 -0.187927
rclavicle 2.38542e-015 5.96354e-015
rhumerus -64.3623 40.4672 -111.675
rradius 25.2799
rwrist 47.1182
rhand -31.4538 -10.8121
rfingers 7.12502
rthumb -4.7213 -40.7395
lclavicle 2.38542e-015 5.96354e-015
lhumerus -57.6493 -29.2867 106.858
lradius 34.0565
lwrist -38.8787
lhand -27.6693 23.9483
lfingers 7.12502
lthumb -1.06654 53.9254
rfemur -125.434 -14.7023 26.5038
rtibia 106.323
rfoot -15.5586 -3.44948
rtoes -10.0085
lfemur -126.859 6.4126 -25.935
ltibia 105.18
lfoot -20.204 7.59537
ltoes -5.16273
118
root 5.81102 10.709 0.826375 42.9064 1.33472 -0.560612
lowerback 6.43227 -1.7134 3.1939
upperback -5.03389 -1.5883 4.8428
thorax -8.91199 -0.803861 3.58607
lowerneck -13.7562 1.6434 -1.21292
upperneck 32.9355 3.54596 -2.64678
head 13.422 1.02289 -0.292954
rclavicle 1.51076e-014 -7.31528e-014
rhumerus -63.4918 39.9507 -110.517
rradius 24.8016
rwrist 47.7815
rhand -31.4076 -10.962
rfingers 7.12502
rthumb -4.67674 -40.8904
lclavicle 1.51076e-014 -7.31528e-014
lhumerus -57.9398 -30.4965 105.982
lradius 36.3729
lwrist -36.3112
lhand -28.5123 25.944
lfingers 7.12502
lthumb -1.88071 55.9155
rfemur -125.453 -14.5708 26.1988
rtibia 106.223
rfoot -15.7703 -3.68885
rtoes -10.4891
lfemur -126.844 6.39422 -26.0866
ltibia 105.107
lfoot -20.5029 7.68254
ltoes -4.67006
119
root 5.81599 10.7395 0.879432 43.265 1.19522 -0.42591
lowerback 6.42085 -1.69818 3.24087
upperback -5.04413 -1.55177 4.98272
thorax -8.91675 -0.783928 3.70516
lowerneck -13.8896 1.73808 -1.30519
upperneck 32.7268 3.8336 -3.02566
head 13.3753 1.08976 -0.379468
rclavicle 1.74931e-014 -6.36111e-015
rhumerus -62.9105 39.8475 -109.67
rradius 24.4848
rwrist 48.3357
rhand -31.2985 -11.1185
rfingers 7.12502
rthumb -4.57135 -41.0492
lclavicle 1.74931e-014 -6.36111e-015
lhumerus -57.466 -29.9989 104.166
lradius 38.3403
lwrist -35.0387
lhand -27.7519 26.2931
lfingers 7.12502
lthumb -1.14628 56.2698
rfemur -125.431 -14.5461 25.9379
rtibia 106.116
rfoot -16.0027 -3.81452
rtoes -10.6438
lfemur -126.77 6.30799 -26.2147
ltibia 105.011
lfoot -20.8199 7.79489
ltoes -4.26951
120
root 5.82101 10.7707 0.93088 43.6195 1.0384 -0.286636
lowerback 6.36056 -1.6834 3.27942
upperback -5.01968 -1.52304 5.11034
thorax -8.85439 -0.768139 3.8127
lowerneck -13.9774 1.84758 -1.33
upperneck 32.4492 4.13623 -3.46158
head 13.2942 1.16653 -0.497256
rclavicle 4.37326e-015 -3.73715e-014
rhumerus -61.9813 39.4099 -108.34
rradius 24.0839
rwrist 49.5604
rhand -30.8148 -10.9751
rfingers 7.12502
rthumb -4.10429 -40.9153
lclavicle 4.37326e-015 -3.73715e-014
lhumerus -57.1672 -29.6881 102.559
lradius 40.4986
lwrist -32.5672
lhand -27.9888 26.9543
lfingers 7.12502
lthumb -1.37507 56.9296
rfemur -125.419 -14.513 25.6646
rtibia 105.991
rfoot -16.1787 -3.9517
rtoes -10.8554
lfemur -126.671 6.21951 -26.3473
ltibia 104.897
lfoot -21.1721 7.9324
ltoes -3.849
121
root 5.8263 10.8021 0.981364 43.9999 0.888433 -0.173734
lowerback 6.29146 -1.66775 3.30715
upperback -5.02205 -1.49158 5.26338
thorax -8.81572 -0.749393 3.9545
lowerneck -14.0195 1.95827 -1.35579
upperneck 32.2218 4.43469 -3.88496
head 13.2264 1.24306 -0.610681
rclavicle 1.23246e-014 -4.77083e-015
rhumerus -61.243 39.1119 -107.134
rradius 23.8101
rwrist 50.5811
rhand -30.3452 -10.4809
rfingers 7.12502
rthumb -3.65082 -40.4294
lclavicle 1.23246e-014 -4.77083e-015
lhumerus -56.8158 -29.0361 100.846
lradius 42.8335
lwrist -29.6292
lhand -27.7714 27.6467
lfingers 7.12502
lthumb -1.16514 57.6233
rfemur -125.438 -14.4904 25.4555
rtibia 105.848
rfoot -16.3229 -4.02004
rtoes -11.0358
lfemur -126.643 6.14628 -26.4675
ltibia 104.774
lfoot -21.4071 8.07637
ltoes -3.8267
122
root 5.83153 10.8348 1.03167 44.3458 0.67199 -0.0557304
lowerback 6.23103 -1.64996 3.26112
upperback -4.99236 -1.46638 5.41694
thorax -8.74472 -0.729365 4.13795
lowerneck -14.0851 2.07596 -1.3849
upperneck 31.9551 4.75296 -4.34478
head 13.1512 1.32427 -0.733501
rclavicle 2.10712e-014 -5.24792e-014
rhumerus -60.6206 39.1251 -106.284
rradius 23.4816
rwrist 51.1476
rhand -30.1388 -10.7111
rfingers 7.12502
rthumb -3.45153 -40.6629
lclavicle 2.10712e-014 -5.24792e-014
lhumerus -56.6001 -28.6707 99.3705
lradius 45.471
lwrist -25.3329
lhand -28.5766 29.747
lfingers 7.12502
lthumb -1.94278 59.7179
rfemur -125.398 -14.4098 25.1788
rtibia 105.682
rfoot -16.4942 -4.19464
rtoes -11.4851
lfemur -126.55 6.11009 -26.6284
ltibia 104.647
lfoot -21.6891 8.22185
ltoes -3.73974
123
root 5.83977 10.8707 1.07992 44.6776 0.44567 0.00668148
lowerback 6.19048 -1.60138 3.38495
upperback -4.94795 -1.38863 5.48048
thorax -8.6785 -0.697074 4.12195
lowerneck -14.1534 2.17409 -1.37884
upperneck 31.7058 5.00861 -4.73166
head 13.0824 1.39224 -0.842924
rclavicle 5.56597e-015 -3.10104e-014
rhumerus -59.9274 38.9827 -105.555
rradius 23.0671
rwrist 51.4956
rhand -29.9586 -10.922
rfingers 7.12502
rthumb -3.27745 -40.8765
lclavicle 5.56597e-015 -3.10104e-014
lhumerus -56.533 -28.802 98.0578
lradius 48.3238
lwrist -19.6045
lhand -28.1743 30.3232
lfingers 7.12502
lthumb -1.55421 60.2973
rfemur -125.314 -14.2926 24.9341
rtibia 105.473
rfoot -16.6811 -4.36372
rtoes -11.8694
lfemur -126.433 6.09477 -26.7502
ltibia 104.497
lfoot -21.9711 8.40771
ltoes -3.48257
124
root 5.84632 10.9064 1.12752 45.0241 0.277353 0.146412
lowerback 6.25739 -1.62027 3.30841
upperback -4.98299 -1.40127 5.66045
thorax -8.751 -0.691872 4.36637
lowerneck -14.1786 2.29791 -1.441
upperneck 31.4997 5.33012 -5.15493
head 13.0265 1.47583 -0.94513
rclavicle 9.54166e-015 -7.95139e-015
rhumerus -59.6992 39.3591 -105.222
rradius 22.8412
rwrist 51.2774
rhand -29.763 -11.1822
rfingers 7.12502
rthumb -3.08858 -41.1396
lclavicle 9.54166e-015 -7.95139e-015
lhumerus -56.5435 -28.4225 96.8608
lradius 51.2208
lwrist -13.768
lhand -27.427 30.8879
lfingers 7.12502
lthumb -0.832462 60.8661
rfemur -125.263 -14.2837 24.7076
rtibia 105.275
rfoot -16.8874 -4.51835
rtoes -12.2706
lfemur -126.308 5.99571 -26.8897
ltibia 104.32
lfoot -22.2375 8.57107
ltoes -3.31555
125
root 5.85273 10.9427 1.17472 45.3778 0.0316533 0.24731
lowerback 6.16433 -1.60867 3.31909
upperback -4.95007 -1.38834 5.72762
thorax -8.66004 -0.684765 4.42484
lowerneck -14.1852 2.40521 -1.42981
upperneck 31.2564 5.56857 -5.47608
head 12.9473 1.54714 -1.03233
rclavicle -3.18055e-014 4.13472e-014
rhumerus -59.0833 39.3912 -104.582
rradius 22.5458
rwrist 51.5105
rhand -29.3657 -10.8677
rfingers 7.12502
rthumb -2.70485 -40.8303
lclavicle -3.18055e-014 4.13472e-014
lhumerus -56.4627 -28.2019 95.4755
lradius 54.3848
lwrist -7.26483
lhand -27.9973 31.9373
lfingers 7.12502
lthumb -1.38333 61.9126
rfemur -125.234 -14.1995 24.4834
rtibia 105.054
rfoot -17.0259 -4.66347
rtoes -12.7229
lfemur -126.203 5.96869 -27.0504
ltibia 104.141
lfoot -22.4822 8.75324
ltoes -3.19083
